<svg viewBox="0 0 400 300" xmlns="http://www.w3.org/2000/svg" role="img" aria-label="Gurugram">
  <defs><linearGradient id="g" x1="0" y1="0" x2="1" y2="1">
    <stop offset="0" stop-color="#4338CA"/><stop offset="1" stop-color="#1D4ED8"/>
  </linearGradient></defs>
  <rect width="400" height="300" fill="url(#g)"/>
  <g fill="#fff" fill-opacity=".16">
    <rect x="30" y="205" width="34" height="45"/>
    <rect x="70" y="180" width="30" height="70"/>
    <rect x="106" y="215" width="26" height="35"/>
    <rect x="270" y="210" width="28" height="40"/>
    <rect x="304" y="185" width="32" height="65"/>
    <rect x="342" y="220" width="26" height="30"/>
  </g>
  <g fill="#fff">
    <rect x="150" y="170" width="30" height="80"/>
    <rect x="185" y="130" width="34" height="120"/>
    <rect x="224" y="155" width="28" height="95"/>
    <g fill-opacity=".35">
      <rect x="156" y="180" width="6" height="10"/><rect x="168" y="180" width="6" height="10"/>
      <rect x="191" y="140" width="6" height="10"/><rect x="205" y="140" width="6" height="10"/>
      <rect x="191" y="160" width="6" height="10"/><rect x="205" y="160" width="6" height="10"/>
      <rect x="230" y="165" width="6" height="10"/><rect x="242" y="165" width="6" height="10"/>
    </g>
  </g>
</svg>
