<svg width="447" height="417" viewBox="0 0 447 417" fill="none" xmlns="http://www.w3.org/2000/svg">
<rect width="447" height="417" fill="#F9F9F9"/>
<g id="Group 26">
<g id="Group 14">
<path id="Line 1 (Stroke)" d="M217.004 7.00417C227.351 3.13591 238.057 8.64894 240.917 19.3179C243.777 29.9868 237.709 41.7715 227.363 45.6398L29.0916 119.77C18.7454 123.638 8.03939 118.125 5.17907 107.456C2.31875 96.787 8.38726 85.0023 18.7335 81.1341L217.004 7.00417Z" fill="black"/>
<path id="Line 2 (Stroke)" d="M229.23 7.00411C218.884 3.13585 208.178 8.64888 205.318 19.3178C202.458 29.9867 208.526 41.7714 218.872 45.6397L417.143 119.77C427.49 123.638 438.196 118.125 441.056 107.456C443.916 96.787 437.848 85.0023 427.501 81.134L229.23 7.00411Z" fill="black"/>
</g>
<path id="PG" d="M77.8898 332.622C61.4898 332.622 50.2898 323.222 44.2898 304.422C38.4898 285.622 35.5898 261.622 35.5898 232.422C35.5898 213.422 38.9898 195.622 45.7898 179.022C52.7898 162.222 63.3898 148.722 77.5898 138.522C91.7898 128.122 109.09 122.922 129.49 122.922C145.89 122.922 160.79 126.422 174.19 133.422C187.59 140.222 198.19 150.022 205.99 162.822C213.99 175.622 217.99 190.422 217.99 207.222C217.99 226.622 214.09 242.922 206.29 256.122C198.49 269.322 188.39 279.122 175.99 285.522C163.59 291.922 150.49 295.122 136.69 295.122C125.49 295.122 115.19 293.222 105.79 289.422C106.99 295.822 107.59 300.722 107.59 304.122C107.59 323.122 97.6898 332.622 77.8898 332.622ZM132.49 248.622C139.69 248.622 145.89 246.022 151.09 240.822C156.49 235.422 159.19 229.222 159.19 222.222C159.19 215.022 156.49 208.822 151.09 203.622C145.89 198.222 139.69 195.522 132.49 195.522C125.49 195.522 119.29 198.222 113.89 203.622C108.49 208.822 105.79 215.022 105.79 222.222C105.79 229.222 108.49 235.422 113.89 240.822C119.29 246.022 125.49 248.622 132.49 248.622ZM332.269 332.022C309.469 332.022 289.969 328.022 273.769 320.022C257.569 312.022 245.169 300.622 236.569 285.822C228.169 270.822 223.969 253.122 223.969 232.722C223.969 208.322 229.069 187.822 239.269 171.222C249.669 154.622 263.069 142.322 279.469 134.322C295.869 126.322 313.069 122.322 331.069 122.322C347.069 122.322 361.169 124.722 373.369 129.522C385.569 134.322 394.969 140.622 401.569 148.422C408.169 156.222 411.469 164.422 411.469 173.022C411.469 185.422 408.269 194.322 401.869 199.722C395.469 204.922 387.569 207.522 378.169 207.522C373.769 207.522 369.869 207.122 366.469 206.322C363.269 205.522 359.869 204.422 356.269 203.022C352.269 201.622 348.669 200.622 345.469 200.022C342.469 199.222 338.669 198.822 334.069 198.822C320.869 198.822 310.469 202.822 302.869 210.822C295.269 218.622 291.469 229.722 291.469 244.122C291.469 256.322 295.169 265.722 302.569 272.322C309.969 278.922 319.169 282.222 330.169 282.222C336.369 282.222 341.769 281.422 346.369 279.822C350.969 278.222 354.469 276.422 356.869 274.422C359.269 272.422 360.469 270.822 360.469 269.622C345.869 269.622 334.769 267.922 327.169 264.522C319.569 261.122 315.769 255.222 315.769 246.822C315.769 238.422 318.669 231.922 324.469 227.322C330.269 222.522 340.069 220.122 353.869 220.122C368.069 220.122 379.169 221.822 387.169 225.222C395.169 228.422 400.869 233.522 404.269 240.522C407.669 247.322 409.369 256.422 409.369 267.822C409.369 279.422 405.869 290.122 398.869 299.922C392.069 309.722 382.669 317.522 370.669 323.322C358.869 329.122 346.069 332.022 332.269 332.022Z" fill="black"/>
<path id="near me" d="M49.3089 416.322C46.4996 416.322 44.2062 414.602 42.4289 411.162C40.7089 407.722 39.4762 403.565 38.7309 398.692C37.9856 393.819 37.6129 389.117 37.6129 384.588C37.6129 377.192 38.7882 370.627 41.1389 364.894C43.5469 359.103 47.5602 356.208 53.1789 356.208C55.6442 356.208 57.7942 357.154 59.6289 359.046C61.5209 360.938 63.1549 363.403 64.5309 366.442C65.9069 369.423 67.5696 373.58 69.5189 378.912L70.9809 382.954C70.8662 380.775 70.8089 379.17 70.8089 378.138C70.8089 371.43 71.6976 366.098 73.4749 362.142C75.3096 358.186 78.2049 356.208 82.1609 356.208C86.9196 356.208 90.1876 359.046 91.9649 364.722C93.7422 370.341 94.6309 376.963 94.6309 384.588C94.6309 389.117 94.0576 393.819 92.9109 398.692C91.8216 403.565 89.9582 407.722 87.3209 411.162C84.6836 414.602 81.2436 416.322 77.0009 416.322C74.4209 416.322 72.1562 415.405 70.2069 413.57C68.3149 411.678 66.7096 409.356 65.3909 406.604C64.1296 403.852 62.6102 400.068 60.8329 395.252C59.9156 392.729 59.1989 390.837 58.6829 389.576L58.7689 396.542C58.7689 401.071 58.5396 404.741 58.0809 407.55C57.6222 410.302 56.7049 412.452 55.3289 414C54.0102 415.548 52.0036 416.322 49.3089 416.322ZM140.996 402.562C143.748 403.422 145.124 405.228 145.124 407.98C145.124 410.56 143.805 412.595 141.168 414.086C138.53 415.577 133.972 416.322 127.494 416.322C119.41 416.322 112.472 414.373 106.682 410.474C100.948 406.575 98.0816 398.835 98.0816 387.254C98.0816 381.406 99.085 376.131 101.092 371.43C103.098 366.729 106.08 363.002 110.036 360.25C114.049 357.498 118.951 356.122 124.742 356.122C132.482 356.122 137.928 357.326 141.082 359.734C144.235 362.085 145.812 364.98 145.812 368.42C145.812 370.025 145.41 371.516 144.608 372.892C143.805 374.211 142.601 375.243 140.996 375.988C139.62 376.676 137.842 377.02 135.664 377.02L133.342 376.934C132.883 376.877 132.224 376.848 131.364 376.848C128.382 376.848 126.032 377.393 124.312 378.482C122.592 379.514 121.416 381.119 120.786 383.298C123.194 383.183 125.372 383.126 127.322 383.126C133.112 383.126 136.868 383.298 138.588 383.642C140.537 384.043 142.028 384.817 143.06 385.964C144.149 387.111 144.694 388.458 144.694 390.006C144.694 391.554 144.178 392.901 143.146 394.048C142.114 395.137 140.566 395.883 138.502 396.284C136.896 396.628 132.998 396.8 126.806 396.8C124.283 396.8 122.506 396.771 121.474 396.714C123.251 400.498 126.576 402.39 131.45 402.39C131.736 402.39 132.396 402.333 133.428 402.218C134.804 402.103 135.979 402.046 136.954 402.046C138.616 402.046 139.964 402.218 140.996 402.562ZM162.728 416.494C158.887 416.494 155.791 414.631 153.44 410.904C151.147 407.12 149.799 402.017 149.398 395.596C149.341 394.679 149.312 393.331 149.312 391.554C149.312 384.617 150.459 378.482 152.752 373.15C155.045 367.761 158.285 363.604 162.47 360.68C166.713 357.699 171.643 356.208 177.262 356.208C182.881 356.208 187.783 357.699 191.968 360.68C196.211 363.604 199.45 367.732 201.686 373.064C203.979 378.396 205.126 384.559 205.126 391.554C205.126 393.331 205.097 394.679 205.04 395.596C204.639 402.132 203.291 407.235 200.998 410.904C198.705 414.573 195.609 416.408 191.71 416.408C188.557 416.408 186.349 415.548 185.088 413.828C183.884 412.108 183.282 410.015 183.282 407.55C183.282 406.403 183.368 405.4 183.54 404.54C180.559 404.655 177.921 404.712 175.628 404.712C174.195 404.712 172.618 404.655 170.898 404.54C171.07 405.4 171.156 406.403 171.156 407.55C171.156 410.073 170.525 412.194 169.264 413.914C168.06 415.634 165.881 416.494 162.728 416.494ZM170.296 389.232C173.392 389.117 175.657 389.06 177.09 389.06C178.638 389.06 180.903 389.117 183.884 389.232C183.999 388.601 184.056 387.655 184.056 386.394C184.056 383.699 183.483 381.521 182.336 379.858C181.189 378.138 179.412 377.278 177.004 377.278C174.653 377.278 172.905 378.109 171.758 379.772C170.611 381.435 170.038 383.585 170.038 386.222C170.038 387.197 170.124 388.2 170.296 389.232ZM260.893 380.46C260.893 384.645 260.262 388.343 259.001 391.554C257.797 394.765 256.077 397.459 253.841 399.638C255.733 402.562 256.679 405.4 256.679 408.152C256.679 410.503 255.762 412.452 253.927 414C252.15 415.548 250.114 416.322 247.821 416.322C246.502 416.322 245.298 416.121 244.209 415.72C243.12 415.319 241.944 414.631 240.683 413.656C239.594 412.796 238.562 411.621 237.587 410.13C236.612 408.639 235.838 407.091 235.265 405.486C233.373 405.257 231.481 404.769 229.589 404.024C229.933 405.859 230.105 407.263 230.105 408.238C230.105 413.685 227.267 416.408 221.591 416.408C216.832 416.408 213.478 413.627 211.529 408.066C209.58 402.505 208.605 395.711 208.605 387.684C208.605 382.237 209.58 377.135 211.529 372.376C213.536 367.56 216.574 363.69 220.645 360.766C224.716 357.785 229.675 356.294 235.523 356.294C240.224 356.294 244.496 357.297 248.337 359.304C252.178 361.253 255.217 364.063 257.453 367.732C259.746 371.401 260.893 375.644 260.893 380.46ZM228.729 384.502C228.729 386.451 229.503 388.171 231.051 389.662C232.599 391.095 234.376 391.812 236.383 391.812C238.447 391.812 240.224 391.095 241.715 389.662C243.263 388.171 244.037 386.451 244.037 384.502C244.037 382.495 243.263 380.775 241.715 379.342C240.224 377.851 238.447 377.106 236.383 377.106C234.376 377.106 232.599 377.851 231.051 379.342C229.503 380.833 228.729 382.553 228.729 384.502ZM324.276 416.322C322.326 416.322 320.692 415.835 319.374 414.86C318.112 413.828 317.224 412.452 316.708 410.732C316.249 409.127 315.962 407.378 315.848 405.486C315.79 403.594 315.762 400.928 315.762 397.488C315.762 394.277 315.618 391.898 315.332 390.35C315.102 388.802 314.5 388.028 313.526 388.028C312.379 388.028 311.576 388.544 311.118 389.576C310.659 390.551 310.43 391.955 310.43 393.79C310.43 395.453 310.659 398.061 311.118 401.616C311.175 402.304 311.29 403.393 311.462 404.884C311.634 406.375 311.72 407.607 311.72 408.582C311.72 411.334 311.089 413.283 309.828 414.43C308.624 415.577 306.846 416.15 304.496 416.15C301.686 416.15 299.25 414.631 297.186 411.592C295.122 408.553 293.574 404.769 292.542 400.24C291.51 395.653 290.994 391.153 290.994 386.738C290.994 381.463 291.739 376.561 293.23 372.032C294.778 367.503 297.071 363.862 300.11 361.11C303.206 358.358 306.932 356.982 311.29 356.982C314.959 356.982 317.883 358.129 320.062 360.422C322.24 362.658 323.702 365.381 324.448 368.592C325.078 365.439 326.483 362.715 328.662 360.422C330.898 358.129 333.822 356.982 337.434 356.982C341.734 356.982 345.403 358.329 348.442 361.024C351.538 363.661 353.888 367.359 355.494 372.118C357.156 376.877 357.988 382.381 357.988 388.63C357.988 392.701 357.414 396.915 356.268 401.272C355.121 405.572 353.516 409.155 351.452 412.022C349.388 414.889 347.037 416.322 344.4 416.322C341.992 416.322 340.157 415.72 338.896 414.516C337.634 413.312 337.004 411.334 337.004 408.582C337.004 407.321 337.233 404.97 337.692 401.53C338.15 397.861 338.38 395.223 338.38 393.618C338.38 389.891 337.376 388.028 335.37 388.028C334.338 388.028 333.678 388.859 333.392 390.522C333.162 392.185 333.019 394.879 332.962 398.606C332.962 401.415 332.904 403.766 332.79 405.658C332.675 407.493 332.417 409.184 332.016 410.732C331.557 412.395 330.64 413.742 329.264 414.774C327.945 415.806 326.282 416.322 324.276 416.322ZM403.531 402.562C406.283 403.422 407.659 405.228 407.659 407.98C407.659 410.56 406.34 412.595 403.703 414.086C401.065 415.577 396.507 416.322 390.029 416.322C381.945 416.322 375.007 414.373 369.217 410.474C363.483 406.575 360.617 398.835 360.617 387.254C360.617 381.406 361.62 376.131 363.627 371.43C365.633 366.729 368.615 363.002 372.571 360.25C376.584 357.498 381.486 356.122 387.277 356.122C395.017 356.122 400.463 357.326 403.617 359.734C406.77 362.085 408.347 364.98 408.347 368.42C408.347 370.025 407.945 371.516 407.143 372.892C406.34 374.211 405.136 375.243 403.531 375.988C402.155 376.676 400.377 377.02 398.199 377.02L395.877 376.934C395.418 376.877 394.759 376.848 393.899 376.848C390.917 376.848 388.567 377.393 386.847 378.482C385.127 379.514 383.951 381.119 383.321 383.298C385.729 383.183 387.907 383.126 389.857 383.126C395.647 383.126 399.403 383.298 401.123 383.642C403.072 384.043 404.563 384.817 405.595 385.964C406.684 387.111 407.229 388.458 407.229 390.006C407.229 391.554 406.713 392.901 405.681 394.048C404.649 395.137 403.101 395.883 401.037 396.284C399.431 396.628 395.533 396.8 389.341 396.8C386.818 396.8 385.041 396.771 384.009 396.714C385.786 400.498 389.111 402.39 393.985 402.39C394.271 402.39 394.931 402.333 395.963 402.218C397.339 402.103 398.514 402.046 399.489 402.046C401.151 402.046 402.499 402.218 403.531 402.562Z" fill="black"/>
</g>
</svg>
